<svg id="Hero_Artboard" data-name="Hero Artboard" xmlns="http://www.w3.org/2000/svg" viewBox="0 0 431.97 292.88"><defs><style>.cls-1{fill:#2f2e41;}.cls-2{fill:#47465e;}.cls-3{fill:#1d1e20;}.cls-4{opacity:0.13;}</style></defs><g id="Device"><g id="Device-2" data-name="Device"><path class="cls-1" d="M432,155.87h0V139.4l-22,1.26L244.77,45.27a16.48,16.48,0,0,0-14.92,0L26.7,162.55,0,164.08v16.41c0,1.56,1,3.12,3.09,4.31L187.2,291.1a16.48,16.48,0,0,0,14.92,0L428.88,160.18c2.06-1.19,3.09-2.75,3.09-4.31Z"/><path class="cls-2" d="M3.09,159.77,229.85,28.85a16.48,16.48,0,0,1,14.92,0L428.88,135.14c4.12,2.38,4.12,6.24,0,8.62L202.12,274.68a16.48,16.48,0,0,1-14.92,0L3.09,168.39C-1,166-1,162.15,3.09,159.77Z"/><polygon class="cls-3" points="237.31 32.75 10.35 163.49 194.66 270.78 422.13 139.08 237.31 32.75"/></g></g></svg>