<svg xmlns="http://www.w3.org/2000/svg" viewBox="0 0 110.41 110.41"><defs><style>.cls-1{fill:none;stroke:#d1cca1;stroke-miterlimit:10;}.cls-2{fill:#d1cca1;}</style></defs><g id="Layer_2" data-name="Layer 2"><g id="Hero_Artboard" data-name="Hero Artboard"><g id="Artwork_6" data-name="Artwork 6"><rect class="cls-1" x="0.5" y="0.5" width="109.41" height="109.41"/><path class="cls-2" d="M15,21.33l3.19-.24,3-.21c1-.06,2-.1,2.92-.12l2.81,0a51.78,51.78,0,0,1,11.62,1.19,27.56,27.56,0,0,1,8.64,3.44,16.58,16.58,0,0,1,5.43,5.4,13.48,13.48,0,0,1,1.9,7.1,14.58,14.58,0,0,1-1.28,6.27,15.47,15.47,0,0,1-3.39,4.75,19.21,19.21,0,0,1-4.74,3.28A24.31,24.31,0,0,1,39.88,54,29.77,29.77,0,0,1,46.8,55.8a22.4,22.4,0,0,1,5.78,3.28,15.44,15.44,0,0,1,4,4.81,13.32,13.32,0,0,1,1.49,6.33,15.73,15.73,0,0,1-2.15,8.2,18.16,18.16,0,0,1-6.17,6.12,31.33,31.33,0,0,1-9.9,3.82,60.93,60.93,0,0,1-13.32,1.32c-1.07,0-2.11,0-3.1-.06s-2-.09-2.89-.15l-2.8-.18c-.94-.06-1.86-.13-2.78-.21Zm5.26,30.8h8.12A37,37,0,0,0,37,51.2a19.82,19.82,0,0,0,6.48-2.68,12.49,12.49,0,0,0,4-4.3,11.75,11.75,0,0,0,1.4-5.76A10.37,10.37,0,0,0,47.44,33a12.27,12.27,0,0,0-4.3-4.12,23.05,23.05,0,0,0-6.86-2.57,42.73,42.73,0,0,0-9.2-.89c-1.07,0-2.17,0-3.28.08s-2.31.15-3.58.27Zm0,32.59q1.79.12,3.57.21C25,85,26.2,85,27.43,85a52.28,52.28,0,0,0,10.63-1,26,26,0,0,0,7.87-2.87,14.12,14.12,0,0,0,4.89-4.57,11.24,11.24,0,0,0,1.69-6.14,10.49,10.49,0,0,0-1.63-5.74,13.22,13.22,0,0,0-4.77-4.32,26.89,26.89,0,0,0-7.72-2.72,51.55,51.55,0,0,0-10.49-1H20.22Z"/><path class="cls-2" d="M91.7,88.66V81.09h-.17a15.19,15.19,0,0,1-6,6.27,17.64,17.64,0,0,1-9,2.32A15.82,15.82,0,0,1,64,84.06q-4.86-5.61-4.87-15.51,0-10.08,5.32-16.33A17.21,17.21,0,0,1,78.18,46q9.36,0,13.35,7.69h.17V27h3.74v61.7Zm0-25.36A14.1,14.1,0,0,0,88,53.44a12.74,12.74,0,0,0-9.91-4.06,13.58,13.58,0,0,0-10.82,5Q63,59.44,63,68.23q0,8.63,3.85,13.33a12.23,12.23,0,0,0,9.91,4.7q7.13,0,11-4.41A15.72,15.72,0,0,0,91.7,71.08Z"/></g></g></g></svg>