<svg id="Hero_Artboard" data-name="Hero Artboard" xmlns="http://www.w3.org/2000/svg" viewBox="0 0 431.97 292.88"><defs><style>.cls-1,.cls-9{fill:#1d1e20;}.cls-1{opacity:0.31;}.cls-2{fill:#332f31;}.cls-3,.cls-5{fill:none;}.cls-3{stroke:#d3cac9;stroke-width:1.72px;}.cls-3,.cls-5,.cls-7{stroke-miterlimit:10;}.cls-4{fill:#2d656e;}.cls-5{stroke:#cbc08d;}.cls-5,.cls-7{stroke-width:0.86px;}.cls-6{fill:#1b4b52;}.cls-10,.cls-7{fill:#cbc08d;}.cls-7{stroke:#27282b;}.cls-8{fill:#27282b;}.cls-11{opacity:0.13;}</style></defs><g id="Device"><g id="Device_Reflection" data-name="Device Reflection"><polygon class="cls-1" points="237.31 33 10.35 163.74 194.66 271.03 422.13 139.33 237.31 33"/><polyline id="Header" class="cls-2" points="279.96 65.83 251.53 82.25 379.48 156.12 407.91 139.7"/><polygon class="cls-3" points="194.66 65.83 137.79 98.66 238.87 156.12 294.18 123.29 194.66 65.83"/><polyline class="cls-4" points="194.66 82.25 201.77 86.35 166.23 106.87 159.12 102.77 194.66 82.25"/><polyline class="cls-4" points="205.32 92.51 173.34 110.98 180.44 115.08 212.43 96.61 205.32 92.51"/><polyline class="cls-4" points="212.43 104.82 219.54 108.92 194.66 123.29 187.55 119.18 212.43 104.82"/><polyline class="cls-4" points="223.09 115.08 201.77 127.39 208.88 131.5 230.2 119.18 223.09 115.08"/><polyline class="cls-4" points="233.76 125.34 215.99 135.6 223.1 139.7 240.87 129.44 233.76 125.34"/><polyline class="cls-4" points="242.64 136.63 230.2 143.81 237.31 147.91 249.75 140.73 242.64 136.63"/><polyline class="cls-5" points="194.66 74.04 152.01 98.66 237.31 147.91"/><polyline class="cls-4" points="180.44 156.12 152.01 172.54 109.36 147.91 137.79 131.5 180.44 156.12"/><polyline class="cls-4" points="180.44 188.95 223.09 213.58 251.53 197.16 208.88 172.54 180.44 188.95"/><polyline class="cls-6" points="167.01 154.57 149.32 164.78 122.79 149.46 140.48 139.25 167.01 154.57"/><polyline class="cls-6" points="193.88 190.5 220.41 205.82 238.09 195.61 211.56 180.29 193.88 190.5"/><g id="Bd_logo" data-name="Bd logo"><polygon class="cls-7" points="239.14 42.93 262.75 56.57 235.48 72.31 211.87 58.67 239.14 42.93"/><path class="cls-8" d="M237.07,47.73l.75.36.7.35c.23.11.45.23.66.35l.61.34A10.55,10.55,0,0,1,242,50.75a3.56,3.56,0,0,1,1,1.57,1.91,1.91,0,0,1-.17,1.46A3.57,3.57,0,0,1,241.48,55a7.47,7.47,0,0,1-1.84.74,9.74,9.74,0,0,1-1.92.26,11.09,11.09,0,0,1-1.84-.12,10.32,10.32,0,0,1-1.59-.38,4.62,4.62,0,0,1,1.06,1.12,2.47,2.47,0,0,1,.43,1.19,1.93,1.93,0,0,1-.34,1.19,3.63,3.63,0,0,1-1.25,1.1,7.94,7.94,0,0,1-2.51.91,10,10,0,0,1-2.86.11,13.57,13.57,0,0,1-3.09-.68,17.84,17.84,0,0,1-3.2-1.47l-.66-.4-.58-.38-.56-.37-.55-.38Zm-6.54,5.09,1.75,1a11.16,11.16,0,0,0,2.1,1,8.85,8.85,0,0,0,2.07.42,6.92,6.92,0,0,0,1.94-.12,5.44,5.44,0,0,0,1.74-.65,2.58,2.58,0,0,0,1.05-1,1.43,1.43,0,0,0,.1-1.13,3.12,3.12,0,0,0-.85-1.22,8.63,8.63,0,0,0-1.76-1.27c-.23-.14-.47-.27-.73-.4s-.53-.27-.84-.41Zm-8.13,4.69.72.47c.24.16.5.32.76.47a15.22,15.22,0,0,0,2.55,1.18,10.23,10.23,0,0,0,2.41.57,7.59,7.59,0,0,0,2.19-.05,5.59,5.59,0,0,0,1.9-.67,2.6,2.6,0,0,0,1.07-1,1.48,1.48,0,0,0,.05-1.22,3.59,3.59,0,0,0-1-1.35,10.92,10.92,0,0,0-2-1.44l-1.66-1Z"/><path class="cls-8" d="M236.85,67l1.89-1.09,0,0a8.6,8.6,0,0,1-2.86.15,6.38,6.38,0,0,1-2.52-.78c-1.11-.64-1.55-1.43-1.31-2.38S233.18,61,234.82,60A12.57,12.57,0,0,1,240,58.34a7.57,7.57,0,0,1,4.53.81c1.35.78,1.67,1.71,1,2.78l0,0,6.66-3.85.81.47-15.38,8.88Zm6.32-3.65a3,3,0,0,0,1.66-1.88c.15-.69-.23-1.3-1.13-1.81a6,6,0,0,0-3.59-.63,10.48,10.48,0,0,0-4.36,1.46c-1.44.82-2.27,1.62-2.49,2.39s.09,1.41,1,1.92a5.92,5.92,0,0,0,3.48.73,8,8,0,0,0,3.53-1.06Z"/></g><polyline id="Footer" class="cls-2" points="65.93 156.12 37.49 172.54 179.66 254.62 208.09 238.2 65.93 156.12"/><g id="Dots"><polyline class="cls-9" points="308.39 131.5 251.53 164.33 308.39 197.16 365.26 164.33 308.39 131.5"/><ellipse class="cls-4" cx="308.76" cy="134.91" rx="1.44" ry="0.82" transform="translate(-14.05 38.35) rotate(-6.95)"/><ellipse class="cls-10" cx="312.13" cy="136.86" rx="1.44" ry="0.82" transform="translate(-14.27 38.77) rotate(-6.95)"/><ellipse class="cls-4" cx="315.5" cy="138.81" rx="1.44" ry="0.82" transform="translate(-14.48 39.19) rotate(-6.95)"/><ellipse class="cls-10" cx="318.87" cy="140.75" rx="1.44" ry="0.82" transform="translate(-14.69 39.61) rotate(-6.95)"/><ellipse class="cls-4" cx="322.25" cy="142.7" rx="1.44" ry="0.82" transform="translate(-14.9 40.04) rotate(-6.95)"/><ellipse class="cls-10" cx="325.62" cy="144.65" rx="1.44" ry="0.82" transform="translate(-15.11 40.46) rotate(-6.95)"/><ellipse class="cls-4" cx="328.99" cy="146.6" rx="1.44" ry="0.82" transform="translate(-15.32 40.88) rotate(-6.95)"/><ellipse class="cls-10" cx="332.36" cy="148.54" rx="1.44" ry="0.82" transform="translate(-15.53 41.3) rotate(-6.95)"/><ellipse class="cls-4" cx="335.74" cy="150.49" rx="1.44" ry="0.82" transform="translate(-15.74 41.72) rotate(-6.95)"/><ellipse class="cls-10" cx="339.11" cy="152.44" rx="1.44" ry="0.82" transform="translate(-15.95 42.15) rotate(-6.95)"/><ellipse class="cls-4" cx="342.48" cy="154.38" rx="1.44" ry="0.82" transform="translate(-16.16 42.57) rotate(-6.95)"/><ellipse class="cls-10" cx="345.85" cy="156.33" rx="1.44" ry="0.82" transform="translate(-16.37 42.99) rotate(-6.95)"/><ellipse class="cls-4" cx="349.23" cy="158.28" rx="1.44" ry="0.82" transform="translate(-16.58 43.41) rotate(-6.95)"/><ellipse class="cls-10" cx="352.6" cy="160.23" rx="1.44" ry="0.82" transform="translate(-16.79 43.84) rotate(-6.95)"/><ellipse class="cls-4" cx="355.97" cy="162.17" rx="1.44" ry="0.82" transform="translate(-17.01 44.26) rotate(-6.95)"/><ellipse class="cls-10" cx="359.34" cy="164.12" rx="1.44" ry="0.82" transform="translate(-17.22 44.68) rotate(-6.95)"/><ellipse class="cls-4" cx="355.07" cy="166.59" rx="1.44" ry="0.82" transform="translate(-17.55 44.18) rotate(-6.95)"/><ellipse class="cls-10" cx="351.69" cy="164.64" rx="1.44" ry="0.82" transform="translate(-17.34 43.76) rotate(-6.95)"/><ellipse class="cls-4" cx="348.32" cy="162.69" rx="1.44" ry="0.82" transform="translate(-17.12 43.34) rotate(-6.95)"/><ellipse class="cls-10" cx="344.95" cy="160.75" rx="1.44" ry="0.82" transform="translate(-16.91 42.91) rotate(-6.95)"/><ellipse class="cls-4" cx="341.58" cy="158.8" rx="1.44" ry="0.82" transform="translate(-16.7 42.49) rotate(-6.95)"/><ellipse class="cls-10" cx="338.2" cy="156.85" rx="1.44" ry="0.82" transform="translate(-16.49 42.07) rotate(-6.95)"/><ellipse class="cls-4" cx="334.83" cy="154.91" rx="1.44" ry="0.82" transform="translate(-16.28 41.65) rotate(-6.95)"/><ellipse class="cls-10" cx="331.46" cy="152.96" rx="1.44" ry="0.82" transform="translate(-16.07 41.23) rotate(-6.95)"/><ellipse class="cls-4" cx="328.09" cy="151.01" rx="1.44" ry="0.82" transform="translate(-15.86 40.8) rotate(-6.95)"/><ellipse class="cls-10" cx="324.71" cy="149.06" rx="1.44" ry="0.82" transform="translate(-15.65 40.38) rotate(-6.95)"/><ellipse class="cls-4" cx="321.34" cy="147.12" rx="1.44" ry="0.82" transform="translate(-15.44 39.96) rotate(-6.95)"/><ellipse class="cls-10" cx="317.97" cy="145.17" rx="1.44" ry="0.82" transform="translate(-15.23 39.54) rotate(-6.95)"/><ellipse class="cls-4" cx="314.6" cy="143.22" rx="1.44" ry="0.82" transform="translate(-15.02 39.11) rotate(-6.95)"/><ellipse class="cls-10" cx="311.22" cy="141.28" rx="1.44" ry="0.82" transform="translate(-14.81 38.69) rotate(-6.95)"/><ellipse class="cls-4" cx="307.85" cy="139.33" rx="1.44" ry="0.82" transform="translate(-14.6 38.27) rotate(-6.95)"/><ellipse class="cls-10" cx="304.48" cy="137.38" rx="1.44" ry="0.82" transform="translate(-14.38 37.85) rotate(-6.95)"/><ellipse class="cls-4" cx="300.2" cy="139.85" rx="1.44" ry="0.82" transform="translate(-14.71 37.35) rotate(-6.95)"/><ellipse class="cls-10" cx="303.58" cy="141.8" rx="1.44" ry="0.82" transform="translate(-14.93 37.77) rotate(-6.95)"/><ellipse class="cls-4" cx="306.95" cy="143.74" rx="1.44" ry="0.82" transform="translate(-15.14 38.19) rotate(-6.95)"/><ellipse class="cls-10" cx="310.32" cy="145.69" rx="1.44" ry="0.82" transform="translate(-15.35 38.61) rotate(-6.95)"/><ellipse class="cls-4" cx="313.69" cy="147.64" rx="1.44" ry="0.82" transform="translate(-15.56 39.04) rotate(-6.95)"/><ellipse class="cls-10" cx="317.07" cy="149.59" rx="1.44" ry="0.82" transform="translate(-15.77 39.46) rotate(-6.95)"/><ellipse class="cls-4" cx="320.44" cy="151.53" rx="1.44" ry="0.82" transform="translate(-15.98 39.88) rotate(-6.95)"/><ellipse class="cls-10" cx="323.81" cy="153.48" rx="1.44" ry="0.82" transform="translate(-16.19 40.3) rotate(-6.95)"/><ellipse class="cls-4" cx="327.18" cy="155.43" rx="1.44" ry="0.82" transform="translate(-16.4 40.73) rotate(-6.95)"/><ellipse class="cls-10" cx="330.56" cy="157.37" rx="1.44" ry="0.82" transform="translate(-16.61 41.15) rotate(-6.95)"/><ellipse class="cls-4" cx="333.93" cy="159.32" rx="1.44" ry="0.82" transform="translate(-16.82 41.57) rotate(-6.95)"/><ellipse class="cls-10" cx="337.3" cy="161.27" rx="1.44" ry="0.82" transform="translate(-17.03 41.99) rotate(-6.95)"/><ellipse class="cls-4" cx="340.67" cy="163.22" rx="1.44" ry="0.82" transform="translate(-17.24 42.42) rotate(-6.95)"/><ellipse class="cls-10" cx="344.05" cy="165.16" rx="1.44" ry="0.82" transform="translate(-17.45 42.84) rotate(-6.95)"/><ellipse class="cls-4" cx="347.42" cy="167.11" rx="1.44" ry="0.82" transform="translate(-17.67 43.26) rotate(-6.95)"/><ellipse class="cls-10" cx="350.79" cy="169.06" rx="1.44" ry="0.82" transform="translate(-17.88 43.68) rotate(-6.95)"/><ellipse class="cls-4" cx="346.51" cy="171.53" rx="1.44" ry="0.82" transform="translate(-18.21 43.18) rotate(-6.95)"/><ellipse class="cls-10" cx="343.14" cy="169.58" rx="1.44" ry="0.82" transform="translate(-18 42.76) rotate(-6.95)"/><ellipse class="cls-4" cx="339.77" cy="167.63" rx="1.44" ry="0.82" transform="translate(-17.79 42.34) rotate(-6.95)"/><ellipse class="cls-10" cx="336.4" cy="165.68" rx="1.44" ry="0.82" transform="translate(-17.57 41.92) rotate(-6.95)"/><ellipse class="cls-4" cx="333.02" cy="163.74" rx="1.44" ry="0.82" transform="translate(-17.36 41.49) rotate(-6.95)"/><ellipse class="cls-10" cx="329.65" cy="161.79" rx="1.44" ry="0.82" transform="translate(-17.15 41.07) rotate(-6.95)"/><ellipse class="cls-4" cx="326.28" cy="159.84" rx="1.44" ry="0.82" transform="translate(-16.94 40.65) rotate(-6.95)"/><ellipse class="cls-10" cx="322.91" cy="157.9" rx="1.44" ry="0.82" transform="translate(-16.73 40.23) rotate(-6.95)"/><ellipse class="cls-4" cx="319.53" cy="155.95" rx="1.44" ry="0.82" transform="translate(-16.52 39.8) rotate(-6.95)"/><ellipse class="cls-10" cx="316.16" cy="154" rx="1.44" ry="0.82" transform="translate(-16.31 39.38) rotate(-6.95)"/><ellipse class="cls-4" cx="312.79" cy="152.05" rx="1.44" ry="0.82" transform="translate(-16.1 38.96) rotate(-6.95)"/><ellipse class="cls-10" cx="309.42" cy="150.11" rx="1.44" ry="0.82" transform="translate(-15.89 38.54) rotate(-6.95)"/><ellipse class="cls-4" cx="306.04" cy="148.16" rx="1.44" ry="0.82" transform="translate(-15.68 38.12) rotate(-6.95)"/><ellipse class="cls-10" cx="302.67" cy="146.21" rx="1.44" ry="0.82" transform="translate(-15.47 37.69) rotate(-6.95)"/><ellipse class="cls-4" cx="299.3" cy="144.27" rx="1.44" ry="0.82" transform="translate(-15.26 37.27) rotate(-6.95)"/><ellipse class="cls-10" cx="295.93" cy="142.32" rx="1.44" ry="0.82" transform="translate(-15.04 36.85) rotate(-6.95)"/><ellipse class="cls-4" cx="291.65" cy="144.79" rx="1.44" ry="0.82" transform="translate(-15.37 36.35) rotate(-6.95)"/><ellipse class="cls-10" cx="295.02" cy="146.73" rx="1.44" ry="0.82" transform="translate(-15.59 36.77) rotate(-6.95)"/><ellipse class="cls-4" cx="298.4" cy="148.68" rx="1.44" ry="0.82" transform="translate(-15.8 37.19) rotate(-6.95)"/><ellipse class="cls-10" cx="301.77" cy="150.63" rx="1.44" ry="0.82" transform="translate(-16.01 37.62) rotate(-6.95)"/><ellipse class="cls-4" cx="305.14" cy="152.58" rx="1.44" ry="0.82" transform="translate(-16.22 38.04) rotate(-6.95)"/><ellipse class="cls-10" cx="308.51" cy="154.52" rx="1.44" ry="0.82" transform="translate(-16.43 38.46) rotate(-6.95)"/><ellipse class="cls-4" cx="311.89" cy="156.47" rx="1.44" ry="0.82" transform="translate(-16.64 38.88) rotate(-6.95)"/><ellipse class="cls-10" cx="315.26" cy="158.42" rx="1.44" ry="0.82" transform="translate(-16.85 39.31) rotate(-6.95)"/><ellipse class="cls-4" cx="318.63" cy="160.36" rx="1.44" ry="0.82" transform="translate(-17.06 39.73) rotate(-6.95)"/><ellipse class="cls-10" cx="322" cy="162.31" rx="1.44" ry="0.82" transform="translate(-17.27 40.15) rotate(-6.95)"/><ellipse class="cls-4" cx="325.38" cy="164.26" rx="1.44" ry="0.82" transform="translate(-17.48 40.57) rotate(-6.95)"/><ellipse class="cls-10" cx="328.75" cy="166.21" rx="1.44" ry="0.82" transform="translate(-17.69 40.99) rotate(-6.95)"/><ellipse class="cls-4" cx="332.12" cy="168.15" rx="1.44" ry="0.82" transform="translate(-17.9 41.42) rotate(-6.95)"/><ellipse class="cls-10" cx="335.49" cy="170.1" rx="1.44" ry="0.82" transform="translate(-18.12 41.84) rotate(-6.95)"/><ellipse class="cls-4" cx="338.87" cy="172.05" rx="1.44" ry="0.82" transform="translate(-18.33 42.26) rotate(-6.95)"/><ellipse class="cls-10" cx="342.24" cy="173.99" rx="1.44" ry="0.82" transform="translate(-18.54 42.68) rotate(-6.95)"/><ellipse class="cls-4" cx="337.96" cy="176.46" rx="1.44" ry="0.82" transform="matrix(0.99, -0.12, 0.12, 0.99, -18.87, 42.18)"/><ellipse class="cls-10" cx="334.59" cy="174.52" rx="1.44" ry="0.82" transform="translate(-18.66 41.76) rotate(-6.95)"/><ellipse class="cls-4" cx="331.22" cy="172.57" rx="1.44" ry="0.82" transform="translate(-18.45 41.34) rotate(-6.95)"/><ellipse class="cls-10" cx="327.85" cy="170.62" rx="1.44" ry="0.82" transform="translate(-18.23 40.92) rotate(-6.95)"/><ellipse class="cls-4" cx="324.47" cy="168.67" rx="1.44" ry="0.82" transform="translate(-18.02 40.5) rotate(-6.95)"/><ellipse class="cls-10" cx="321.1" cy="166.73" rx="1.44" ry="0.82" transform="translate(-17.81 40.07) rotate(-6.95)"/><ellipse class="cls-4" cx="317.73" cy="164.78" rx="1.44" ry="0.82" transform="translate(-17.6 39.65) rotate(-6.95)"/><ellipse class="cls-10" cx="314.36" cy="162.83" rx="1.44" ry="0.82" transform="translate(-17.39 39.23) rotate(-6.95)"/><ellipse class="cls-4" cx="310.98" cy="160.89" rx="1.44" ry="0.82" transform="translate(-17.18 38.81) rotate(-6.95)"/><ellipse class="cls-10" cx="307.61" cy="158.94" rx="1.44" ry="0.82" transform="translate(-16.97 38.38) rotate(-6.95)"/><ellipse class="cls-4" cx="304.24" cy="156.99" rx="1.44" ry="0.82" transform="translate(-16.76 37.96) rotate(-6.95)"/><ellipse class="cls-10" cx="300.86" cy="155.04" rx="1.44" ry="0.82" transform="translate(-16.55 37.54) rotate(-6.95)"/><ellipse class="cls-4" cx="297.49" cy="153.1" rx="1.44" ry="0.82" transform="translate(-16.34 37.12) rotate(-6.95)"/><ellipse class="cls-10" cx="294.12" cy="151.15" rx="1.44" ry="0.82" transform="translate(-16.13 36.69) rotate(-6.95)"/><ellipse class="cls-4" cx="290.75" cy="149.2" rx="1.44" ry="0.82" transform="translate(-15.92 36.27) rotate(-6.95)"/><ellipse class="cls-10" cx="287.37" cy="147.26" rx="1.44" ry="0.82" transform="translate(-15.7 35.85) rotate(-6.95)"/><ellipse class="cls-4" cx="283.1" cy="149.73" rx="1.44" ry="0.82" transform="translate(-16.03 35.35) rotate(-6.95)"/><ellipse class="cls-10" cx="286.47" cy="151.67" rx="1.44" ry="0.82" transform="translate(-16.25 35.77) rotate(-6.95)"/><ellipse class="cls-4" cx="289.84" cy="153.62" rx="1.44" ry="0.82" transform="translate(-16.46 36.2) rotate(-6.95)"/><ellipse class="cls-10" cx="293.22" cy="155.57" rx="1.44" ry="0.82" transform="translate(-16.67 36.62) rotate(-6.95)"/><ellipse class="cls-4" cx="296.59" cy="157.51" rx="1.44" ry="0.82" transform="translate(-16.88 37.04) rotate(-6.95)"/><ellipse class="cls-10" cx="299.96" cy="159.46" rx="1.44" ry="0.82" transform="translate(-17.09 37.46) rotate(-6.95)"/><ellipse class="cls-4" cx="303.33" cy="161.41" rx="1.44" ry="0.82" transform="translate(-17.3 37.88) rotate(-6.95)"/><ellipse class="cls-10" cx="306.71" cy="163.36" rx="1.44" ry="0.82" transform="translate(-17.51 38.31) rotate(-6.95)"/><ellipse class="cls-4" cx="310.08" cy="165.3" rx="1.44" ry="0.82" transform="translate(-17.72 38.73) rotate(-6.95)"/><ellipse class="cls-10" cx="313.45" cy="167.25" rx="1.44" ry="0.82" transform="translate(-17.93 39.15) rotate(-6.95)"/><ellipse class="cls-4" cx="316.82" cy="169.2" rx="1.44" ry="0.82" transform="translate(-18.14 39.57) rotate(-6.95)"/><ellipse class="cls-10" cx="320.2" cy="171.14" rx="1.44" ry="0.82" transform="translate(-18.35 40) rotate(-6.95)"/><ellipse class="cls-4" cx="323.57" cy="173.09" rx="1.44" ry="0.82" transform="translate(-18.56 40.42) rotate(-6.95)"/><ellipse class="cls-10" cx="326.94" cy="175.04" rx="1.44" ry="0.82" transform="translate(-18.78 40.84) rotate(-6.95)"/><ellipse class="cls-4" cx="330.31" cy="176.98" rx="1.44" ry="0.82" transform="translate(-18.99 41.26) rotate(-6.95)"/><ellipse class="cls-10" cx="333.69" cy="178.93" rx="1.44" ry="0.82" transform="translate(-19.2 41.69) rotate(-6.95)"/><ellipse class="cls-4" cx="329.41" cy="181.4" rx="1.44" ry="0.82" transform="translate(-19.53 41.19) rotate(-6.95)"/><ellipse class="cls-10" cx="326.04" cy="179.45" rx="1.44" ry="0.82" transform="translate(-19.32 40.76) rotate(-6.95)"/><ellipse class="cls-4" cx="322.67" cy="177.51" rx="1.44" ry="0.82" transform="translate(-19.11 40.34) rotate(-6.95)"/><ellipse class="cls-10" cx="319.29" cy="175.56" rx="1.44" ry="0.82" transform="translate(-18.89 39.92) rotate(-6.95)"/><ellipse class="cls-4" cx="315.92" cy="173.61" rx="1.44" ry="0.82" transform="translate(-18.68 39.5) rotate(-6.95)"/><ellipse class="cls-10" cx="312.55" cy="171.67" rx="1.44" ry="0.82" transform="translate(-18.47 39.07) rotate(-6.95)"/><ellipse class="cls-4" cx="309.18" cy="169.72" rx="1.44" ry="0.82" transform="translate(-18.26 38.65) rotate(-6.95)"/><ellipse class="cls-10" cx="305.8" cy="167.77" rx="1.44" ry="0.82" transform="translate(-18.05 38.23) rotate(-6.95)"/><ellipse class="cls-4" cx="302.43" cy="165.82" rx="1.44" ry="0.82" transform="translate(-17.84 37.81) rotate(-6.95)"/><ellipse class="cls-10" cx="299.06" cy="163.88" rx="1.44" ry="0.82" transform="translate(-17.63 37.39) rotate(-6.95)"/><ellipse class="cls-4" cx="295.69" cy="161.93" rx="1.44" ry="0.82" transform="translate(-17.42 36.96) rotate(-6.95)"/><ellipse class="cls-10" cx="292.31" cy="159.98" rx="1.44" ry="0.82" transform="translate(-17.21 36.54) rotate(-6.95)"/><ellipse class="cls-4" cx="288.94" cy="158.04" rx="1.44" ry="0.82" transform="translate(-17 36.12) rotate(-6.95)"/><ellipse class="cls-10" cx="285.57" cy="156.09" rx="1.44" ry="0.82" transform="translate(-16.79 35.7) rotate(-6.95)"/><ellipse class="cls-4" cx="282.2" cy="154.14" rx="1.44" ry="0.82" transform="translate(-16.58 35.27) rotate(-6.95)"/><ellipse class="cls-10" cx="278.82" cy="152.19" rx="1.44" ry="0.82" transform="translate(-16.37 34.85) rotate(-6.95)"/><ellipse class="cls-4" cx="274.55" cy="154.66" rx="1.44" ry="0.82" transform="translate(-16.7 34.35) rotate(-6.95)"/><ellipse class="cls-10" cx="277.92" cy="156.61" rx="1.44" ry="0.82" transform="translate(-16.91 34.77) rotate(-6.95)"/><ellipse class="cls-4" cx="281.29" cy="158.56" rx="1.44" ry="0.82" transform="translate(-17.12 35.2) rotate(-6.95)"/><ellipse class="cls-10" cx="284.66" cy="160.5" rx="1.44" ry="0.82" transform="translate(-17.33 35.62) rotate(-6.95)"/><ellipse class="cls-4" cx="288.04" cy="162.45" rx="1.44" ry="0.82" transform="translate(-17.54 36.04) rotate(-6.95)"/><ellipse class="cls-10" cx="291.41" cy="164.4" rx="1.44" ry="0.82" transform="translate(-17.75 36.46) rotate(-6.95)"/><ellipse class="cls-4" cx="294.78" cy="166.35" rx="1.44" ry="0.82" transform="translate(-17.96 36.89) rotate(-6.95)"/><ellipse class="cls-10" cx="298.15" cy="168.29" rx="1.44" ry="0.82" transform="translate(-18.17 37.31) rotate(-6.95)"/><ellipse class="cls-4" cx="301.53" cy="170.24" rx="1.44" ry="0.82" transform="translate(-18.38 37.73) rotate(-6.95)"/><ellipse class="cls-10" cx="304.9" cy="172.19" rx="1.44" ry="0.82" transform="translate(-18.59 38.15) rotate(-6.95)"/><ellipse class="cls-4" cx="308.27" cy="174.13" rx="1.44" ry="0.82" transform="translate(-18.8 38.58) rotate(-6.95)"/><ellipse class="cls-10" cx="311.64" cy="176.08" rx="1.44" ry="0.82" transform="translate(-19.01 39) rotate(-6.95)"/><ellipse class="cls-4" cx="315.02" cy="178.03" rx="1.44" ry="0.82" transform="translate(-19.22 39.42) rotate(-6.95)"/><ellipse class="cls-10" cx="318.39" cy="179.98" rx="1.44" ry="0.82" transform="translate(-19.44 39.84) rotate(-6.95)"/><ellipse class="cls-4" cx="321.76" cy="181.92" rx="1.44" ry="0.82" transform="translate(-19.65 40.26) rotate(-6.95)"/><ellipse class="cls-10" cx="325.13" cy="183.87" rx="1.44" ry="0.82" transform="translate(-19.86 40.69) rotate(-6.95)"/><ellipse class="cls-4" cx="320.86" cy="186.34" rx="1.44" ry="0.82" transform="translate(-20.19 40.19) rotate(-6.95)"/><ellipse class="cls-10" cx="317.49" cy="184.39" rx="1.44" ry="0.82" transform="translate(-19.98 39.77) rotate(-6.95)"/><ellipse class="cls-4" cx="314.11" cy="182.44" rx="1.44" ry="0.82" transform="translate(-19.77 39.34) rotate(-6.95)"/><ellipse class="cls-10" cx="310.74" cy="180.5" rx="1.44" ry="0.82" transform="translate(-19.55 38.92) rotate(-6.95)"/><ellipse class="cls-4" cx="307.37" cy="178.55" rx="1.44" ry="0.82" transform="translate(-19.34 38.5) rotate(-6.95)"/><ellipse class="cls-10" cx="304" cy="176.6" rx="1.44" ry="0.82" transform="translate(-19.13 38.08) rotate(-6.95)"/><ellipse class="cls-4" cx="300.62" cy="174.66" rx="1.44" ry="0.82" transform="translate(-18.92 37.65) rotate(-6.95)"/><ellipse class="cls-10" cx="297.25" cy="172.71" rx="1.44" ry="0.82" transform="translate(-18.71 37.23) rotate(-6.95)"/><ellipse class="cls-4" cx="293.88" cy="170.76" rx="1.44" ry="0.82" transform="translate(-18.5 36.81) rotate(-6.95)"/><ellipse class="cls-10" cx="290.51" cy="168.81" rx="1.44" ry="0.82" transform="translate(-18.29 36.39) rotate(-6.95)"/><ellipse class="cls-4" cx="287.13" cy="166.87" rx="1.44" ry="0.82" transform="translate(-18.08 35.96) rotate(-6.95)"/><ellipse class="cls-10" cx="283.76" cy="164.92" rx="1.44" ry="0.82" transform="translate(-17.87 35.54) rotate(-6.95)"/><ellipse class="cls-4" cx="280.39" cy="162.97" rx="1.44" ry="0.82" transform="translate(-17.66 35.12) rotate(-6.95)"/><ellipse class="cls-10" cx="277.02" cy="161.03" rx="1.44" ry="0.82" transform="translate(-17.45 34.7) rotate(-6.95)"/><ellipse class="cls-4" cx="273.64" cy="159.08" rx="1.44" ry="0.82" transform="translate(-17.24 34.28) rotate(-6.95)"/><ellipse class="cls-10" cx="270.27" cy="157.13" rx="1.44" ry="0.82" transform="translate(-17.03 33.85) rotate(-6.95)"/><ellipse class="cls-4" cx="265.99" cy="159.6" rx="1.44" ry="0.82" transform="translate(-17.36 33.35) rotate(-6.95)"/><ellipse class="cls-10" cx="269.37" cy="161.55" rx="1.44" ry="0.82" transform="translate(-17.57 33.78) rotate(-6.95)"/><ellipse class="cls-4" cx="272.74" cy="163.49" rx="1.44" ry="0.82" transform="translate(-17.78 34.2) rotate(-6.95)"/><ellipse class="cls-10" cx="276.11" cy="165.44" rx="1.44" ry="0.82" transform="translate(-17.99 34.62) rotate(-6.95)"/><ellipse class="cls-4" cx="279.48" cy="167.39" rx="1.44" ry="0.82" transform="translate(-18.2 35.04) rotate(-6.95)"/><ellipse class="cls-10" cx="282.86" cy="169.34" rx="1.44" ry="0.82" transform="translate(-18.41 35.47) rotate(-6.95)"/><ellipse class="cls-4" cx="286.23" cy="171.28" rx="1.44" ry="0.82" transform="translate(-18.62 35.89) rotate(-6.95)"/><ellipse class="cls-10" cx="289.6" cy="173.23" rx="1.44" ry="0.82" transform="translate(-18.83 36.31) rotate(-6.95)"/><ellipse class="cls-4" cx="292.97" cy="175.18" rx="1.44" ry="0.82" transform="translate(-19.04 36.73) rotate(-6.95)"/><ellipse class="cls-10" cx="296.35" cy="177.12" rx="1.44" ry="0.82" transform="translate(-19.25 37.15) rotate(-6.95)"/><ellipse class="cls-4" cx="299.72" cy="179.07" rx="1.44" ry="0.82" transform="translate(-19.46 37.58) rotate(-6.95)"/><ellipse class="cls-10" cx="303.09" cy="181.02" rx="1.44" ry="0.82" transform="translate(-19.67 38) rotate(-6.95)"/><ellipse class="cls-4" cx="306.46" cy="182.97" rx="1.44" ry="0.82" transform="translate(-19.88 38.42) rotate(-6.95)"/><ellipse class="cls-10" cx="309.84" cy="184.91" rx="1.44" ry="0.82" transform="translate(-20.1 38.84) rotate(-6.95)"/><ellipse class="cls-4" cx="313.21" cy="186.86" rx="1.44" ry="0.82" transform="translate(-20.31 39.27) rotate(-6.95)"/><ellipse class="cls-10" cx="316.58" cy="188.81" rx="1.44" ry="0.82" transform="translate(-20.52 39.69) rotate(-6.95)"/><ellipse class="cls-4" cx="312.31" cy="191.28" rx="1.44" ry="0.82" transform="translate(-20.85 39.19) rotate(-6.95)"/><ellipse class="cls-10" cx="308.93" cy="189.33" rx="1.44" ry="0.82" transform="translate(-20.64 38.77) rotate(-6.95)"/><ellipse class="cls-4" cx="305.56" cy="187.38" rx="1.44" ry="0.82" transform="translate(-20.43 38.34) rotate(-6.95)"/><ellipse class="cls-10" cx="302.19" cy="185.43" rx="1.44" ry="0.82" transform="translate(-20.22 37.92) rotate(-6.95)"/><ellipse class="cls-4" cx="298.82" cy="183.49" rx="1.44" ry="0.82" transform="translate(-20 37.5) rotate(-6.95)"/><ellipse class="cls-10" cx="295.44" cy="181.54" rx="1.44" ry="0.82" transform="translate(-19.79 37.08) rotate(-6.95)"/><ellipse class="cls-4" cx="292.07" cy="179.59" rx="1.44" ry="0.82" transform="translate(-19.58 36.66) rotate(-6.95)"/><ellipse class="cls-10" cx="288.7" cy="177.65" rx="1.44" ry="0.82" transform="translate(-19.37 36.23) rotate(-6.95)"/><ellipse class="cls-4" cx="285.33" cy="175.7" rx="1.44" ry="0.82" transform="translate(-19.16 35.81) rotate(-6.95)"/><ellipse class="cls-10" cx="281.95" cy="173.75" rx="1.44" ry="0.82" transform="translate(-18.95 35.39) rotate(-6.95)"/><ellipse class="cls-4" cx="278.58" cy="171.8" rx="1.44" ry="0.82" transform="translate(-18.74 34.97) rotate(-6.95)"/><ellipse class="cls-10" cx="275.21" cy="169.86" rx="1.44" ry="0.82" transform="translate(-18.53 34.54) rotate(-6.95)"/><ellipse class="cls-4" cx="271.84" cy="167.91" rx="1.44" ry="0.82" transform="translate(-18.32 34.12) rotate(-6.95)"/><ellipse class="cls-10" cx="268.46" cy="165.96" rx="1.44" ry="0.82" transform="translate(-18.11 33.7) rotate(-6.95)"/><ellipse class="cls-4" cx="265.09" cy="164.02" rx="1.44" ry="0.82" transform="translate(-17.9 33.28) rotate(-6.95)"/><ellipse class="cls-10" cx="261.72" cy="162.07" rx="1.44" ry="0.82" transform="translate(-17.69 32.85) rotate(-6.95)"/><ellipse class="cls-4" cx="257.44" cy="164.54" rx="1.44" ry="0.82" transform="translate(-18.02 32.36) rotate(-6.95)"/><ellipse class="cls-10" cx="260.81" cy="166.49" rx="1.44" ry="0.82" transform="translate(-18.23 32.78) rotate(-6.95)"/><ellipse class="cls-4" cx="264.19" cy="168.43" rx="1.44" ry="0.82" transform="translate(-18.44 33.2) rotate(-6.95)"/><ellipse class="cls-10" cx="267.56" cy="170.38" rx="1.44" ry="0.82" transform="translate(-18.65 33.62) rotate(-6.95)"/><ellipse class="cls-4" cx="270.93" cy="172.33" rx="1.44" ry="0.82" transform="translate(-18.86 34.04) rotate(-6.95)"/><ellipse class="cls-10" cx="274.31" cy="174.27" rx="1.44" ry="0.82" transform="translate(-19.07 34.47) rotate(-6.95)"/><ellipse class="cls-4" cx="277.68" cy="176.22" rx="1.44" ry="0.82" transform="translate(-19.28 34.89) rotate(-6.95)"/><ellipse class="cls-10" cx="281.05" cy="178.17" rx="1.44" ry="0.82" transform="translate(-19.49 35.31) rotate(-6.95)"/><ellipse class="cls-4" cx="284.42" cy="180.11" rx="1.44" ry="0.82" transform="translate(-19.7 35.73) rotate(-6.95)"/><ellipse class="cls-10" cx="287.8" cy="182.06" rx="1.44" ry="0.82" transform="translate(-19.91 36.16) rotate(-6.95)"/><ellipse class="cls-4" cx="291.17" cy="184.01" rx="1.44" ry="0.82" transform="translate(-20.12 36.58) rotate(-6.95)"/><ellipse class="cls-10" cx="294.54" cy="185.96" rx="1.44" ry="0.82" transform="translate(-20.33 37) rotate(-6.95)"/><ellipse class="cls-4" cx="297.91" cy="187.9" rx="1.44" ry="0.82" transform="translate(-20.55 37.42) rotate(-6.95)"/><ellipse class="cls-10" cx="301.29" cy="189.85" rx="1.44" ry="0.82" transform="translate(-20.76 37.85) rotate(-6.95)"/><ellipse class="cls-4" cx="304.66" cy="191.8" rx="1.44" ry="0.82" transform="translate(-20.97 38.27) rotate(-6.95)"/><ellipse class="cls-10" cx="308.03" cy="193.74" rx="1.44" ry="0.82" transform="translate(-21.18 38.69) rotate(-6.95)"/></g></g></g></svg>