<svg id="Hero_Artboard" data-name="Hero Artboard" xmlns="http://www.w3.org/2000/svg" viewBox="0 0 431.97 292.88"><defs><style>.cls-1{fill:#332f31;}.cls-2,.cls-4{fill:none;}.cls-2{stroke:#d3cac9;stroke-width:1.72px;}.cls-2,.cls-4,.cls-6{stroke-miterlimit:10;}.cls-3{fill:#2d656e;}.cls-4{stroke:#cbc08d;}.cls-4,.cls-6{stroke-width:0.86px;}.cls-5{fill:#1b4b52;}.cls-6,.cls-9{fill:#cbc08d;}.cls-6{stroke:#27282b;}.cls-7{fill:#27282b;}.cls-8{fill:#1d1e20;}.cls-10{opacity:0.13;}</style></defs><g id="Device"><g id="Device-2" data-name="Device"><polyline id="Header" class="cls-1" points="279.96 65.58 251.53 82 379.48 155.87 407.91 139.45"/><polygon class="cls-2" points="194.66 65.58 137.79 98.41 238.87 155.87 294.18 123.04 194.66 65.58"/><polyline class="cls-3" points="194.66 82 201.77 86.1 166.23 106.62 159.12 102.52 194.66 82"/><polyline class="cls-3" points="205.32 92.26 173.34 110.73 180.44 114.83 212.43 96.36 205.32 92.26"/><polyline class="cls-3" points="212.43 104.57 219.54 108.67 194.66 123.04 187.55 118.93 212.43 104.57"/><polyline class="cls-3" points="223.09 114.83 201.77 127.14 208.88 131.25 230.2 118.93 223.09 114.83"/><polyline class="cls-3" points="233.76 125.09 215.99 135.35 223.1 139.45 240.87 129.19 233.76 125.09"/><polyline class="cls-3" points="242.64 136.38 230.2 143.56 237.31 147.66 249.75 140.48 242.64 136.38"/><polyline class="cls-4" points="194.66 73.79 152.01 98.41 237.31 147.66"/><polyline class="cls-3" points="180.44 155.87 152.01 172.29 109.36 147.66 137.79 131.25 180.44 155.87"/><polyline class="cls-3" points="180.44 188.7 223.09 213.33 251.53 196.91 208.88 172.29 180.44 188.7"/><polyline class="cls-5" points="167.01 154.32 149.32 164.53 122.79 149.21 140.48 139 167.01 154.32"/><polyline class="cls-5" points="193.88 190.25 220.41 205.57 238.09 195.36 211.56 180.04 193.88 190.25"/><g id="Bd_logo" data-name="Bd logo"><polygon class="cls-6" points="239.14 42.68 262.75 56.32 235.48 72.06 211.87 58.42 239.14 42.68"/><path class="cls-7" d="M237.07,47.48l.75.36.7.35c.23.11.45.23.66.35l.61.34A10.55,10.55,0,0,1,242,50.5a3.62,3.62,0,0,1,1,1.57,1.91,1.91,0,0,1-.17,1.46,3.57,3.57,0,0,1-1.36,1.26,7.47,7.47,0,0,1-1.84.74,9.74,9.74,0,0,1-1.92.26,11.09,11.09,0,0,1-1.84-.12,10.32,10.32,0,0,1-1.59-.38,4.62,4.62,0,0,1,1.06,1.12,2.47,2.47,0,0,1,.43,1.19,1.93,1.93,0,0,1-.34,1.19,3.63,3.63,0,0,1-1.25,1.1,7.94,7.94,0,0,1-2.51.91,10,10,0,0,1-2.86.11,13.57,13.57,0,0,1-3.09-.68,17.84,17.84,0,0,1-3.2-1.47l-.66-.4-.58-.38-.56-.37-.55-.38Zm-6.54,5.09,1.75,1a11.16,11.16,0,0,0,2.1,1,8.85,8.85,0,0,0,2.07.42,6.92,6.92,0,0,0,1.94-.12,5.44,5.44,0,0,0,1.74-.65,2.58,2.58,0,0,0,1.05-1,1.43,1.43,0,0,0,.1-1.13,3.12,3.12,0,0,0-.85-1.22,8.63,8.63,0,0,0-1.76-1.27c-.23-.14-.47-.27-.73-.4s-.53-.27-.84-.41Zm-8.13,4.69.72.47c.24.16.5.32.76.47a15.22,15.22,0,0,0,2.55,1.18,10.23,10.23,0,0,0,2.41.57A7.59,7.59,0,0,0,231,59.9a5.59,5.59,0,0,0,1.9-.67,2.6,2.6,0,0,0,1.07-1,1.48,1.48,0,0,0,.05-1.22,3.59,3.59,0,0,0-1-1.35,10.92,10.92,0,0,0-2-1.44l-1.66-1Z"/><path class="cls-7" d="M236.85,66.73l1.89-1.09,0,0a8.6,8.6,0,0,1-2.86.15,6.38,6.38,0,0,1-2.52-.78c-1.11-.64-1.55-1.43-1.31-2.38s1.17-1.88,2.81-2.83A12.57,12.57,0,0,1,240,58.09a7.57,7.57,0,0,1,4.53.81c1.35.78,1.67,1.71,1,2.78l0,0,6.66-3.85.81.47L237.66,67.2Zm6.32-3.65a3,3,0,0,0,1.66-1.88c.15-.69-.23-1.3-1.13-1.81a6,6,0,0,0-3.59-.63,10.48,10.48,0,0,0-4.36,1.46c-1.44.82-2.27,1.62-2.49,2.39s.09,1.41,1,1.92a5.92,5.92,0,0,0,3.48.73,8,8,0,0,0,3.53-1.06Z"/></g><polyline id="Footer" class="cls-1" points="65.93 155.87 37.49 172.29 179.66 254.37 208.09 237.95 65.93 155.87"/><g id="Dots"><polyline class="cls-8" points="308.39 131.25 251.53 164.08 308.39 196.91 365.26 164.08 308.39 131.25"/><ellipse class="cls-3" cx="308.76" cy="134.66" rx="1.44" ry="0.82" transform="translate(-14.02 38.34) rotate(-6.95)"/><ellipse class="cls-9" cx="312.13" cy="136.61" rx="1.44" ry="0.82" transform="translate(-14.23 38.77) rotate(-6.95)"/><ellipse class="cls-3" cx="315.5" cy="138.56" rx="1.44" ry="0.82" transform="translate(-14.45 39.19) rotate(-6.95)"/><ellipse class="cls-9" cx="318.87" cy="140.5" rx="1.44" ry="0.82" transform="translate(-14.66 39.61) rotate(-6.95)"/><ellipse class="cls-3" cx="322.25" cy="142.45" rx="1.44" ry="0.82" transform="translate(-14.87 40.03) rotate(-6.95)"/><ellipse class="cls-9" cx="325.62" cy="144.4" rx="1.44" ry="0.82" transform="translate(-15.08 40.46) rotate(-6.95)"/><ellipse class="cls-3" cx="328.99" cy="146.35" rx="1.44" ry="0.82" transform="translate(-15.29 40.88) rotate(-6.95)"/><ellipse class="cls-9" cx="332.36" cy="148.29" rx="1.44" ry="0.82" transform="translate(-15.5 41.3) rotate(-6.95)"/><ellipse class="cls-3" cx="335.74" cy="150.24" rx="1.44" ry="0.82" transform="translate(-15.71 41.72) rotate(-6.95)"/><ellipse class="cls-9" cx="339.11" cy="152.19" rx="1.44" ry="0.82" transform="translate(-15.92 42.14) rotate(-6.95)"/><ellipse class="cls-3" cx="342.48" cy="154.13" rx="1.44" ry="0.82" transform="translate(-16.13 42.57) rotate(-6.95)"/><ellipse class="cls-9" cx="345.85" cy="156.08" rx="1.44" ry="0.82" transform="translate(-16.34 42.99) rotate(-6.95)"/><ellipse class="cls-3" cx="349.23" cy="158.03" rx="1.44" ry="0.82" transform="translate(-16.55 43.41) rotate(-6.95)"/><ellipse class="cls-9" cx="352.6" cy="159.98" rx="1.44" ry="0.82" transform="translate(-16.76 43.83) rotate(-6.95)"/><ellipse class="cls-3" cx="355.97" cy="161.92" rx="1.44" ry="0.82" transform="translate(-16.98 44.26) rotate(-6.95)"/><ellipse class="cls-9" cx="359.34" cy="163.87" rx="1.44" ry="0.82" transform="translate(-17.19 44.68) rotate(-6.95)"/><ellipse class="cls-3" cx="355.07" cy="166.34" rx="1.44" ry="0.82" transform="translate(-17.52 44.18) rotate(-6.95)"/><ellipse class="cls-9" cx="351.69" cy="164.39" rx="1.44" ry="0.82" transform="translate(-17.31 43.76) rotate(-6.95)"/><ellipse class="cls-3" cx="348.32" cy="162.44" rx="1.44" ry="0.82" transform="translate(-17.09 43.33) rotate(-6.95)"/><ellipse class="cls-9" cx="344.95" cy="160.5" rx="1.44" ry="0.82" transform="translate(-16.88 42.91) rotate(-6.95)"/><ellipse class="cls-3" cx="341.58" cy="158.55" rx="1.44" ry="0.82" transform="translate(-16.67 42.49) rotate(-6.95)"/><ellipse class="cls-9" cx="338.2" cy="156.6" rx="1.44" ry="0.82" transform="translate(-16.46 42.07) rotate(-6.95)"/><ellipse class="cls-3" cx="334.83" cy="154.66" rx="1.44" ry="0.82" transform="translate(-16.25 41.65) rotate(-6.95)"/><ellipse class="cls-9" cx="331.46" cy="152.71" rx="1.44" ry="0.82" transform="translate(-16.04 41.22) rotate(-6.95)"/><ellipse class="cls-3" cx="328.09" cy="150.76" rx="1.44" ry="0.82" transform="translate(-15.83 40.8) rotate(-6.95)"/><ellipse class="cls-9" cx="324.71" cy="148.81" rx="1.44" ry="0.82" transform="translate(-15.62 40.38) rotate(-6.95)"/><ellipse class="cls-3" cx="321.34" cy="146.87" rx="1.44" ry="0.82" transform="translate(-15.41 39.96) rotate(-6.95)"/><ellipse class="cls-9" cx="317.97" cy="144.92" rx="1.44" ry="0.82" transform="translate(-15.2 39.53) rotate(-6.95)"/><ellipse class="cls-3" cx="314.6" cy="142.97" rx="1.44" ry="0.82" transform="translate(-14.99 39.11) rotate(-6.95)"/><ellipse class="cls-9" cx="311.22" cy="141.03" rx="1.44" ry="0.82" transform="translate(-14.78 38.69) rotate(-6.95)"/><ellipse class="cls-3" cx="307.85" cy="139.08" rx="1.44" ry="0.82" transform="translate(-14.57 38.27) rotate(-6.95)"/><ellipse class="cls-9" cx="304.48" cy="137.13" rx="1.44" ry="0.82" transform="translate(-14.35 37.84) rotate(-6.95)"/><ellipse class="cls-3" cx="300.2" cy="139.6" rx="1.44" ry="0.82" transform="translate(-14.68 37.35) rotate(-6.95)"/><ellipse class="cls-9" cx="303.58" cy="141.55" rx="1.44" ry="0.82" transform="translate(-14.9 37.77) rotate(-6.95)"/><ellipse class="cls-3" cx="306.95" cy="143.49" rx="1.44" ry="0.82" transform="translate(-15.11 38.19) rotate(-6.95)"/><ellipse class="cls-9" cx="310.32" cy="145.44" rx="1.44" ry="0.82" transform="translate(-15.32 38.61) rotate(-6.95)"/><ellipse class="cls-3" cx="313.69" cy="147.39" rx="1.44" ry="0.82" transform="translate(-15.53 39.03) rotate(-6.95)"/><ellipse class="cls-9" cx="317.07" cy="149.34" rx="1.44" ry="0.82" transform="translate(-15.74 39.46) rotate(-6.95)"/><ellipse class="cls-3" cx="320.44" cy="151.28" rx="1.44" ry="0.82" transform="translate(-15.95 39.88) rotate(-6.95)"/><ellipse class="cls-9" cx="323.81" cy="153.23" rx="1.44" ry="0.82" transform="translate(-16.16 40.3) rotate(-6.95)"/><ellipse class="cls-3" cx="327.18" cy="155.18" rx="1.44" ry="0.82" transform="translate(-16.37 40.72) rotate(-6.95)"/><ellipse class="cls-9" cx="330.56" cy="157.12" rx="1.44" ry="0.82" transform="translate(-16.58 41.15) rotate(-6.95)"/><ellipse class="cls-3" cx="333.93" cy="159.07" rx="1.44" ry="0.82" transform="translate(-16.79 41.57) rotate(-6.95)"/><ellipse class="cls-9" cx="337.3" cy="161.02" rx="1.44" ry="0.82" transform="translate(-17 41.99) rotate(-6.95)"/><ellipse class="cls-3" cx="340.67" cy="162.97" rx="1.44" ry="0.82" transform="translate(-17.21 42.41) rotate(-6.95)"/><ellipse class="cls-9" cx="344.05" cy="164.91" rx="1.44" ry="0.82" transform="translate(-17.42 42.84) rotate(-6.95)"/><ellipse class="cls-3" cx="347.42" cy="166.86" rx="1.44" ry="0.82" transform="translate(-17.64 43.26) rotate(-6.95)"/><ellipse class="cls-9" cx="350.79" cy="168.81" rx="1.44" ry="0.82" transform="translate(-17.85 43.68) rotate(-6.95)"/><ellipse class="cls-3" cx="346.51" cy="171.28" rx="1.44" ry="0.82" transform="translate(-18.18 43.18) rotate(-6.95)"/><ellipse class="cls-9" cx="343.14" cy="169.33" rx="1.44" ry="0.82" transform="translate(-17.97 42.76) rotate(-6.95)"/><ellipse class="cls-3" cx="339.77" cy="167.38" rx="1.44" ry="0.82" transform="translate(-17.75 42.34) rotate(-6.95)"/><ellipse class="cls-9" cx="336.4" cy="165.43" rx="1.44" ry="0.82" transform="translate(-17.54 41.91) rotate(-6.95)"/><ellipse class="cls-3" cx="333.02" cy="163.49" rx="1.44" ry="0.82" transform="translate(-17.33 41.49) rotate(-6.95)"/><ellipse class="cls-9" cx="329.65" cy="161.54" rx="1.44" ry="0.82" transform="translate(-17.12 41.07) rotate(-6.95)"/><ellipse class="cls-3" cx="326.28" cy="159.59" rx="1.44" ry="0.82" transform="translate(-16.91 40.65) rotate(-6.95)"/><ellipse class="cls-9" cx="322.91" cy="157.65" rx="1.44" ry="0.82" transform="translate(-16.7 40.22) rotate(-6.95)"/><ellipse class="cls-3" cx="319.53" cy="155.7" rx="1.44" ry="0.82" transform="translate(-16.49 39.8) rotate(-6.95)"/><ellipse class="cls-9" cx="316.16" cy="153.75" rx="1.44" ry="0.82" transform="translate(-16.28 39.38) rotate(-6.95)"/><ellipse class="cls-3" cx="312.79" cy="151.8" rx="1.44" ry="0.82" transform="translate(-16.07 38.96) rotate(-6.95)"/><ellipse class="cls-9" cx="309.42" cy="149.86" rx="1.44" ry="0.82" transform="translate(-15.86 38.54) rotate(-6.95)"/><ellipse class="cls-3" cx="306.04" cy="147.91" rx="1.44" ry="0.82" transform="translate(-15.65 38.11) rotate(-6.95)"/><ellipse class="cls-9" cx="302.67" cy="145.96" rx="1.44" ry="0.82" transform="translate(-15.44 37.69) rotate(-6.95)"/><ellipse class="cls-3" cx="299.3" cy="144.02" rx="1.44" ry="0.82" transform="translate(-15.23 37.27) rotate(-6.95)"/><ellipse class="cls-9" cx="295.93" cy="142.07" rx="1.44" ry="0.82" transform="translate(-15.01 36.85) rotate(-6.95)"/><ellipse class="cls-3" cx="291.65" cy="144.54" rx="1.44" ry="0.82" transform="translate(-15.34 36.35) rotate(-6.95)"/><ellipse class="cls-9" cx="295.02" cy="146.48" rx="1.44" ry="0.82" transform="translate(-15.56 36.77) rotate(-6.95)"/><ellipse class="cls-3" cx="298.4" cy="148.43" rx="1.44" ry="0.82" transform="translate(-15.77 37.19) rotate(-6.95)"/><ellipse class="cls-9" cx="301.77" cy="150.38" rx="1.44" ry="0.82" transform="translate(-15.98 37.61) rotate(-6.95)"/><ellipse class="cls-3" cx="305.14" cy="152.33" rx="1.44" ry="0.82" transform="translate(-16.19 38.04) rotate(-6.95)"/><ellipse class="cls-9" cx="308.51" cy="154.27" rx="1.44" ry="0.82" transform="translate(-16.4 38.46) rotate(-6.95)"/><ellipse class="cls-3" cx="311.89" cy="156.22" rx="1.44" ry="0.82" transform="translate(-16.61 38.88) rotate(-6.95)"/><ellipse class="cls-9" cx="315.26" cy="158.17" rx="1.44" ry="0.82" transform="translate(-16.82 39.3) rotate(-6.95)"/><ellipse class="cls-3" cx="318.63" cy="160.11" rx="1.44" ry="0.82" transform="translate(-17.03 39.73) rotate(-6.95)"/><ellipse class="cls-9" cx="322" cy="162.06" rx="1.44" ry="0.82" transform="translate(-17.24 40.15) rotate(-6.95)"/><ellipse class="cls-3" cx="325.38" cy="164.01" rx="1.44" ry="0.82" transform="translate(-17.45 40.57) rotate(-6.95)"/><ellipse class="cls-9" cx="328.75" cy="165.96" rx="1.44" ry="0.82" transform="translate(-17.66 40.99) rotate(-6.95)"/><ellipse class="cls-3" cx="332.12" cy="167.9" rx="1.44" ry="0.82" transform="translate(-17.87 41.41) rotate(-6.95)"/><ellipse class="cls-9" cx="335.49" cy="169.85" rx="1.44" ry="0.82" transform="translate(-18.08 41.84) rotate(-6.95)"/><ellipse class="cls-3" cx="338.87" cy="171.8" rx="1.44" ry="0.82" transform="translate(-18.3 42.26) rotate(-6.95)"/><ellipse class="cls-9" cx="342.24" cy="173.74" rx="1.44" ry="0.82" transform="translate(-18.51 42.68) rotate(-6.95)"/><ellipse class="cls-3" cx="337.96" cy="176.21" rx="1.44" ry="0.82" transform="translate(-18.84 42.18) rotate(-6.95)"/><ellipse class="cls-9" cx="334.59" cy="174.27" rx="1.44" ry="0.82" transform="translate(-18.63 41.76) rotate(-6.95)"/><ellipse class="cls-3" cx="331.22" cy="172.32" rx="1.44" ry="0.82" transform="translate(-18.41 41.34) rotate(-6.95)"/><ellipse class="cls-9" cx="327.85" cy="170.37" rx="1.44" ry="0.82" transform="translate(-18.2 40.92) rotate(-6.95)"/><ellipse class="cls-3" cx="324.47" cy="168.42" rx="1.44" ry="0.82" transform="translate(-17.99 40.49) rotate(-6.95)"/><ellipse class="cls-9" cx="321.1" cy="166.48" rx="1.44" ry="0.82" transform="translate(-17.78 40.07) rotate(-6.95)"/><ellipse class="cls-3" cx="317.73" cy="164.53" rx="1.44" ry="0.82" transform="translate(-17.57 39.65) rotate(-6.95)"/><ellipse class="cls-9" cx="314.36" cy="162.58" rx="1.44" ry="0.82" transform="translate(-17.36 39.23) rotate(-6.95)"/><ellipse class="cls-3" cx="310.98" cy="160.64" rx="1.44" ry="0.82" transform="translate(-17.15 38.8) rotate(-6.95)"/><ellipse class="cls-9" cx="307.61" cy="158.69" rx="1.44" ry="0.82" transform="translate(-16.94 38.38) rotate(-6.95)"/><ellipse class="cls-3" cx="304.24" cy="156.74" rx="1.44" ry="0.82" transform="translate(-16.73 37.96) rotate(-6.95)"/><ellipse class="cls-9" cx="300.86" cy="154.79" rx="1.44" ry="0.82" transform="translate(-16.52 37.54) rotate(-6.95)"/><ellipse class="cls-3" cx="297.49" cy="152.85" rx="1.44" ry="0.82" transform="translate(-16.31 37.11) rotate(-6.95)"/><ellipse class="cls-9" cx="294.12" cy="150.9" rx="1.44" ry="0.82" transform="translate(-16.1 36.69) rotate(-6.95)"/><ellipse class="cls-3" cx="290.75" cy="148.95" rx="1.44" ry="0.82" transform="translate(-15.89 36.27) rotate(-6.95)"/><ellipse class="cls-9" cx="287.37" cy="147.01" rx="1.44" ry="0.82" transform="translate(-15.67 35.85) rotate(-6.95)"/><ellipse class="cls-3" cx="283.1" cy="149.48" rx="1.44" ry="0.82" transform="translate(-16 35.35) rotate(-6.95)"/><ellipse class="cls-9" cx="286.47" cy="151.42" rx="1.44" ry="0.82" transform="translate(-16.22 35.77) rotate(-6.95)"/><ellipse class="cls-3" cx="289.84" cy="153.37" rx="1.44" ry="0.82" transform="translate(-16.43 36.19) rotate(-6.95)"/><ellipse class="cls-9" cx="293.22" cy="155.32" rx="1.44" ry="0.82" transform="translate(-16.64 36.62) rotate(-6.95)"/><ellipse class="cls-3" cx="296.59" cy="157.26" rx="1.44" ry="0.82" transform="translate(-16.85 37.04) rotate(-6.95)"/><ellipse class="cls-9" cx="299.96" cy="159.21" rx="1.44" ry="0.82" transform="translate(-17.06 37.46) rotate(-6.95)"/><ellipse class="cls-3" cx="303.33" cy="161.16" rx="1.44" ry="0.82" transform="translate(-17.27 37.88) rotate(-6.95)"/><ellipse class="cls-9" cx="306.71" cy="163.11" rx="1.44" ry="0.82" transform="translate(-17.48 38.3) rotate(-6.95)"/><ellipse class="cls-3" cx="310.08" cy="165.05" rx="1.44" ry="0.82" transform="translate(-17.69 38.73) rotate(-6.95)"/><ellipse class="cls-9" cx="313.45" cy="167" rx="1.44" ry="0.82" transform="translate(-17.9 39.15) rotate(-6.95)"/><ellipse class="cls-3" cx="316.82" cy="168.95" rx="1.44" ry="0.82" transform="translate(-18.11 39.57) rotate(-6.95)"/><ellipse class="cls-9" cx="320.2" cy="170.89" rx="1.44" ry="0.82" transform="translate(-18.32 39.99) rotate(-6.95)"/><ellipse class="cls-3" cx="323.57" cy="172.84" rx="1.44" ry="0.82" transform="translate(-18.53 40.42) rotate(-6.95)"/><ellipse class="cls-9" cx="326.94" cy="174.79" rx="1.44" ry="0.82" transform="translate(-18.75 40.84) rotate(-6.95)"/><ellipse class="cls-3" cx="330.31" cy="176.74" rx="1.44" ry="0.82" transform="translate(-18.96 41.26) rotate(-6.95)"/><ellipse class="cls-9" cx="333.69" cy="178.68" rx="1.44" ry="0.82" transform="translate(-19.17 41.68) rotate(-6.95)"/><ellipse class="cls-3" cx="329.41" cy="181.15" rx="1.44" ry="0.82" transform="translate(-19.5 41.18) rotate(-6.95)"/><ellipse class="cls-9" cx="326.04" cy="179.2" rx="1.44" ry="0.82" transform="translate(-19.29 40.76) rotate(-6.95)"/><ellipse class="cls-3" cx="322.67" cy="177.26" rx="1.44" ry="0.82" transform="translate(-19.08 40.34) rotate(-6.95)"/><ellipse class="cls-9" cx="319.29" cy="175.31" rx="1.44" ry="0.82" transform="translate(-18.86 39.92) rotate(-6.95)"/><ellipse class="cls-3" cx="315.92" cy="173.36" rx="1.44" ry="0.82" transform="translate(-18.65 39.5) rotate(-6.95)"/><ellipse class="cls-9" cx="312.55" cy="171.42" rx="1.44" ry="0.82" transform="translate(-18.44 39.07) rotate(-6.95)"/><ellipse class="cls-3" cx="309.18" cy="169.47" rx="1.44" ry="0.82" transform="translate(-18.23 38.65) rotate(-6.95)"/><ellipse class="cls-9" cx="305.8" cy="167.52" rx="1.44" ry="0.82" transform="translate(-18.02 38.23) rotate(-6.95)"/><ellipse class="cls-3" cx="302.43" cy="165.57" rx="1.44" ry="0.82" transform="translate(-17.81 37.81) rotate(-6.95)"/><ellipse class="cls-9" cx="299.06" cy="163.63" rx="1.44" ry="0.82" transform="translate(-17.6 37.38) rotate(-6.95)"/><ellipse class="cls-3" cx="295.69" cy="161.68" rx="1.44" ry="0.82" transform="translate(-17.39 36.96) rotate(-6.95)"/><ellipse class="cls-9" cx="292.31" cy="159.73" rx="1.44" ry="0.82" transform="translate(-17.18 36.54) rotate(-6.95)"/><ellipse class="cls-3" cx="288.94" cy="157.79" rx="1.44" ry="0.82" transform="translate(-16.97 36.12) rotate(-6.95)"/><ellipse class="cls-9" cx="285.57" cy="155.84" rx="1.44" ry="0.82" transform="translate(-16.76 35.69) rotate(-6.95)"/><ellipse class="cls-3" cx="282.2" cy="153.89" rx="1.44" ry="0.82" transform="translate(-16.55 35.27) rotate(-6.95)"/><ellipse class="cls-9" cx="278.82" cy="151.94" rx="1.44" ry="0.82" transform="translate(-16.33 34.85) rotate(-6.95)"/><ellipse class="cls-3" cx="274.55" cy="154.41" rx="1.44" ry="0.82" transform="translate(-16.66 34.35) rotate(-6.95)"/><ellipse class="cls-9" cx="277.92" cy="156.36" rx="1.44" ry="0.82" transform="translate(-16.88 34.77) rotate(-6.95)"/><ellipse class="cls-3" cx="281.29" cy="158.31" rx="1.44" ry="0.82" transform="translate(-17.09 35.19) rotate(-6.95)"/><ellipse class="cls-9" cx="284.66" cy="160.25" rx="1.44" ry="0.82" transform="translate(-17.3 35.62) rotate(-6.95)"/><ellipse class="cls-3" cx="288.04" cy="162.2" rx="1.44" ry="0.82" transform="translate(-17.51 36.04) rotate(-6.95)"/><ellipse class="cls-9" cx="291.41" cy="164.15" rx="1.44" ry="0.82" transform="translate(-17.72 36.46) rotate(-6.95)"/><ellipse class="cls-3" cx="294.78" cy="166.1" rx="1.44" ry="0.82" transform="translate(-17.93 36.88) rotate(-6.95)"/><ellipse class="cls-9" cx="298.15" cy="168.04" rx="1.44" ry="0.82" transform="translate(-18.14 37.31) rotate(-6.95)"/><ellipse class="cls-3" cx="301.53" cy="169.99" rx="1.44" ry="0.82" transform="translate(-18.35 37.73) rotate(-6.95)"/><ellipse class="cls-9" cx="304.9" cy="171.94" rx="1.44" ry="0.82" transform="translate(-18.56 38.15) rotate(-6.95)"/><ellipse class="cls-3" cx="308.27" cy="173.88" rx="1.44" ry="0.82" transform="translate(-18.77 38.57) rotate(-6.95)"/><ellipse class="cls-9" cx="311.64" cy="175.83" rx="1.44" ry="0.82" transform="translate(-18.98 39) rotate(-6.95)"/><ellipse class="cls-3" cx="315.02" cy="177.78" rx="1.44" ry="0.82" transform="translate(-19.19 39.42) rotate(-6.95)"/><ellipse class="cls-9" cx="318.39" cy="179.73" rx="1.44" ry="0.82" transform="translate(-19.41 39.84) rotate(-6.95)"/><ellipse class="cls-3" cx="321.76" cy="181.67" rx="1.44" ry="0.82" transform="translate(-19.62 40.26) rotate(-6.95)"/><ellipse class="cls-9" cx="325.13" cy="183.62" rx="1.44" ry="0.82" transform="translate(-19.83 40.69) rotate(-6.95)"/><ellipse class="cls-3" cx="320.86" cy="186.09" rx="1.44" ry="0.82" transform="translate(-20.16 40.19) rotate(-6.95)"/><ellipse class="cls-9" cx="317.49" cy="184.14" rx="1.44" ry="0.82" transform="translate(-19.95 39.76) rotate(-6.95)"/><ellipse class="cls-3" cx="314.11" cy="182.19" rx="1.44" ry="0.82" transform="translate(-19.74 39.34) rotate(-6.95)"/><ellipse class="cls-9" cx="310.74" cy="180.25" rx="1.44" ry="0.82" transform="translate(-19.52 38.92) rotate(-6.95)"/><ellipse class="cls-3" cx="307.37" cy="178.3" rx="1.44" ry="0.82" transform="translate(-19.31 38.5) rotate(-6.95)"/><ellipse class="cls-9" cx="304" cy="176.35" rx="1.44" ry="0.82" transform="translate(-19.1 38.07) rotate(-6.95)"/><ellipse class="cls-3" cx="300.62" cy="174.41" rx="1.44" ry="0.82" transform="translate(-18.89 37.65) rotate(-6.95)"/><ellipse class="cls-9" cx="297.25" cy="172.46" rx="1.44" ry="0.82" transform="translate(-18.68 37.23) rotate(-6.95)"/><ellipse class="cls-3" cx="293.88" cy="170.51" rx="1.44" ry="0.82" transform="translate(-18.47 36.81) rotate(-6.95)"/><ellipse class="cls-9" cx="290.51" cy="168.56" rx="1.44" ry="0.82" transform="translate(-18.26 36.38) rotate(-6.95)"/><ellipse class="cls-3" cx="287.13" cy="166.62" rx="1.44" ry="0.82" transform="translate(-18.05 35.96) rotate(-6.95)"/><ellipse class="cls-9" cx="283.76" cy="164.67" rx="1.44" ry="0.82" transform="translate(-17.84 35.54) rotate(-6.95)"/><ellipse class="cls-3" cx="280.39" cy="162.72" rx="1.44" ry="0.82" transform="translate(-17.63 35.12) rotate(-6.95)"/><ellipse class="cls-9" cx="277.02" cy="160.78" rx="1.44" ry="0.82" transform="translate(-17.42 34.7) rotate(-6.95)"/><ellipse class="cls-3" cx="273.64" cy="158.83" rx="1.44" ry="0.82" transform="translate(-17.21 34.27) rotate(-6.95)"/><ellipse class="cls-9" cx="270.27" cy="156.88" rx="1.44" ry="0.82" transform="translate(-16.99 33.85) rotate(-6.95)"/><ellipse class="cls-3" cx="265.99" cy="159.35" rx="1.44" ry="0.82" transform="translate(-17.33 33.35) rotate(-6.95)"/><ellipse class="cls-9" cx="269.37" cy="161.3" rx="1.44" ry="0.82" transform="translate(-17.54 33.77) rotate(-6.95)"/><ellipse class="cls-3" cx="272.74" cy="163.24" rx="1.44" ry="0.82" transform="translate(-17.75 34.2) rotate(-6.95)"/><ellipse class="cls-9" cx="276.11" cy="165.19" rx="1.44" ry="0.82" transform="translate(-17.96 34.62) rotate(-6.95)"/><ellipse class="cls-3" cx="279.48" cy="167.14" rx="1.44" ry="0.82" transform="translate(-18.17 35.04) rotate(-6.95)"/><ellipse class="cls-9" cx="282.86" cy="169.09" rx="1.44" ry="0.82" transform="translate(-18.38 35.46) rotate(-6.95)"/><ellipse class="cls-3" cx="286.23" cy="171.03" rx="1.44" ry="0.82" transform="translate(-18.59 35.89) rotate(-6.95)"/><ellipse class="cls-9" cx="289.6" cy="172.98" rx="1.44" ry="0.82" transform="translate(-18.8 36.31) rotate(-6.95)"/><ellipse class="cls-3" cx="292.97" cy="174.93" rx="1.44" ry="0.82" transform="translate(-19.01 36.73) rotate(-6.95)"/><ellipse class="cls-9" cx="296.35" cy="176.87" rx="1.44" ry="0.82" transform="translate(-19.22 37.15) rotate(-6.95)"/><ellipse class="cls-3" cx="299.72" cy="178.82" rx="1.44" ry="0.82" transform="translate(-19.43 37.58) rotate(-6.95)"/><ellipse class="cls-9" cx="303.09" cy="180.77" rx="1.44" ry="0.82" transform="translate(-19.64 38) rotate(-6.95)"/><ellipse class="cls-3" cx="306.46" cy="182.72" rx="1.44" ry="0.82" transform="translate(-19.85 38.42) rotate(-6.95)"/><ellipse class="cls-9" cx="309.84" cy="184.66" rx="1.44" ry="0.82" transform="translate(-20.07 38.84) rotate(-6.95)"/><ellipse class="cls-3" cx="313.21" cy="186.61" rx="1.44" ry="0.82" transform="translate(-20.28 39.26) rotate(-6.95)"/><ellipse class="cls-9" cx="316.58" cy="188.56" rx="1.44" ry="0.82" transform="translate(-20.49 39.69) rotate(-6.95)"/><ellipse class="cls-3" cx="312.31" cy="191.03" rx="1.44" ry="0.82" transform="translate(-20.82 39.19) rotate(-6.95)"/><ellipse class="cls-9" cx="308.93" cy="189.08" rx="1.44" ry="0.82" transform="translate(-20.61 38.77) rotate(-6.95)"/><ellipse class="cls-3" cx="305.56" cy="187.13" rx="1.44" ry="0.82" transform="translate(-20.4 38.34) rotate(-6.95)"/><ellipse class="cls-9" cx="302.19" cy="185.18" rx="1.44" ry="0.82" transform="translate(-20.18 37.92) rotate(-6.95)"/><ellipse class="cls-3" cx="298.82" cy="183.24" rx="1.44" ry="0.82" transform="translate(-19.97 37.5) rotate(-6.95)"/><ellipse class="cls-9" cx="295.44" cy="181.29" rx="1.44" ry="0.82" transform="translate(-19.76 37.08) rotate(-6.95)"/><ellipse class="cls-3" cx="292.07" cy="179.34" rx="1.44" ry="0.82" transform="translate(-19.55 36.65) rotate(-6.95)"/><ellipse class="cls-9" cx="288.7" cy="177.4" rx="1.44" ry="0.82" transform="translate(-19.34 36.23) rotate(-6.95)"/><ellipse class="cls-3" cx="285.33" cy="175.45" rx="1.44" ry="0.82" transform="translate(-19.13 35.81) rotate(-6.95)"/><ellipse class="cls-9" cx="281.95" cy="173.5" rx="1.44" ry="0.82" transform="translate(-18.92 35.39) rotate(-6.95)"/><ellipse class="cls-3" cx="278.58" cy="171.55" rx="1.44" ry="0.82" transform="translate(-18.71 34.96) rotate(-6.95)"/><ellipse class="cls-9" cx="275.21" cy="169.61" rx="1.44" ry="0.82" transform="translate(-18.5 34.54) rotate(-6.95)"/><ellipse class="cls-3" cx="271.84" cy="167.66" rx="1.44" ry="0.82" transform="translate(-18.29 34.12) rotate(-6.95)"/><ellipse class="cls-9" cx="268.46" cy="165.71" rx="1.44" ry="0.82" transform="translate(-18.08 33.7) rotate(-6.95)"/><ellipse class="cls-3" cx="265.09" cy="163.77" rx="1.44" ry="0.82" transform="translate(-17.87 33.27) rotate(-6.95)"/><ellipse class="cls-9" cx="261.72" cy="161.82" rx="1.44" ry="0.82" transform="translate(-17.66 32.85) rotate(-6.95)"/><ellipse class="cls-3" cx="257.44" cy="164.29" rx="1.44" ry="0.82" transform="translate(-17.99 32.35) rotate(-6.95)"/><ellipse class="cls-9" cx="260.81" cy="166.24" rx="1.44" ry="0.82" transform="translate(-18.2 32.78) rotate(-6.95)"/><ellipse class="cls-3" cx="264.19" cy="168.18" rx="1.44" ry="0.82" transform="translate(-18.41 33.2) rotate(-6.95)"/><ellipse class="cls-9" cx="267.56" cy="170.13" rx="1.44" ry="0.82" transform="translate(-18.62 33.62) rotate(-6.95)"/><ellipse class="cls-3" cx="270.93" cy="172.08" rx="1.44" ry="0.82" transform="translate(-18.83 34.04) rotate(-6.95)"/><ellipse class="cls-9" cx="274.31" cy="174.02" rx="1.44" ry="0.82" transform="translate(-19.04 34.47) rotate(-6.95)"/><ellipse class="cls-3" cx="277.68" cy="175.97" rx="1.44" ry="0.82" transform="translate(-19.25 34.89) rotate(-6.95)"/><ellipse class="cls-9" cx="281.05" cy="177.92" rx="1.44" ry="0.82" transform="translate(-19.46 35.31) rotate(-6.95)"/><ellipse class="cls-3" cx="284.42" cy="179.86" rx="1.44" ry="0.82" transform="translate(-19.67 35.73) rotate(-6.95)"/><ellipse class="cls-9" cx="287.8" cy="181.81" rx="1.44" ry="0.82" transform="translate(-19.88 36.15) rotate(-6.95)"/><ellipse class="cls-3" cx="291.17" cy="183.76" rx="1.44" ry="0.82" transform="translate(-20.09 36.58) rotate(-6.95)"/><ellipse class="cls-9" cx="294.54" cy="185.71" rx="1.44" ry="0.82" transform="translate(-20.3 37) rotate(-6.95)"/><ellipse class="cls-3" cx="297.91" cy="187.65" rx="1.44" ry="0.82" transform="translate(-20.51 37.42) rotate(-6.95)"/><ellipse class="cls-9" cx="301.29" cy="189.6" rx="1.44" ry="0.82" transform="translate(-20.73 37.84) rotate(-6.95)"/><ellipse class="cls-3" cx="304.66" cy="191.55" rx="1.44" ry="0.82" transform="translate(-20.94 38.27) rotate(-6.95)"/><ellipse class="cls-9" cx="308.03" cy="193.49" rx="1.44" ry="0.82" transform="translate(-21.15 38.69) rotate(-6.95)"/></g></g></g></svg>