<svg xmlns="http://www.w3.org/2000/svg" width="607.986" height="520.314" viewBox="0 0 607.986 520.314">
  <g id="Watermark" transform="translate(359 295.643)" opacity="0.1">
    <path id="Path_2886" data-name="Path 2886" d="M15,23.943l24.2-1.512,22.686-1.512h43.1a389.438,389.438,0,0,1,87.719,9.074A210.223,210.223,0,0,1,257.74,55.7a125.529,125.529,0,0,1,40.835,40.835,102.088,102.088,0,0,1,14.368,53.69,110.405,110.405,0,0,1-9.831,47.641A116.455,116.455,0,0,1,277.4,233.41a144.434,144.434,0,0,1-35.541,24.954,183.75,183.75,0,0,1-38.566,12.855,223.079,223.079,0,0,1,52.178,13.612,167.119,167.119,0,0,1,43.859,24.955,115.7,115.7,0,0,1,30.248,36.3,100.573,100.573,0,0,1,11.343,47.64,118.722,118.722,0,0,1-15.88,62.008,137.628,137.628,0,0,1-46.884,46.128A239.717,239.717,0,0,1,203.293,530.6a463.548,463.548,0,0,1-100.574,9.831H57.347l-21.174-1.512L15,536.646ZM55.078,256.852h61.252a281.3,281.3,0,0,0,65.789-6.806,150.484,150.484,0,0,0,49.153-20.417,93.768,93.768,0,0,0,30.248-32.517,88.475,88.475,0,0,0,10.587-43.86,77.888,77.888,0,0,0-12.1-40.835,93.012,93.012,0,0,0-32.516-31,174.682,174.682,0,0,0-52.178-19.661,324.408,324.408,0,0,0-69.57-6.806h-24.2L54.322,57.216Zm0,246.521L82.3,504.885h27.223a390.963,390.963,0,0,0,80.157-7.562,195.859,195.859,0,0,0,59.74-21.93,106.624,106.624,0,0,0,37.054-34.785A85.451,85.451,0,0,0,299.33,394.48a78.645,78.645,0,0,0-12.1-43.1,99.819,99.819,0,0,0-36.3-32.517,204.175,204.175,0,0,0-58.227-20.417,391.706,391.706,0,0,0-79.4-7.562H54.322Z" transform="translate(-374.014 -316.551)" fill="#1d1e20"/>
    <path id="Path_2887" data-name="Path 2887" d="M305.62,493.575V436.1h-1.512a114.941,114.941,0,0,1-45.372,47.641,133.091,133.091,0,0,1-68.058,17.392,119.479,119.479,0,0,1-94.525-42.347Q59.1,416.442,59.1,341.579t40.078-123.26a130.066,130.066,0,0,1,104.355-47.641q71.083,0,100.574,58.227h1.512V27H333.6V493.575Zm0-192.074a106.624,106.624,0,0,0-27.979-74.864,96.037,96.037,0,0,0-74.864-31,102.843,102.843,0,0,0-81.669,37.81Q88.592,272.008,88.592,338.554t28.736,100.574a92.256,92.256,0,0,0,74.864,35.541q53.69,0,83.182-33.273a118.723,118.723,0,0,0,29.492-81.669Z" transform="translate(-84.606 -276.501)" fill="#1d1e20"/>
  </g>
</svg>
