<svg xmlns="http://www.w3.org/2000/svg" width="125.83" height="168.2" viewBox="0 0 125.83 168.2">
  <defs>
    <style>
      .cls-1 {
        fill: #34252f;
      }

      .cls-2 {
        fill: #825d76;
      }
    </style>
  </defs>
  <g id="Layer_2" data-name="Layer 2">
    <g id="Layer_1-2" data-name="Layer 1">
      <g>
        <path class="cls-1" d="M3.67,128.1c4-2.27,4-5.07,4-24.15V14.18C7.7,7.88,7.17,6,0,4.73V3.85C5.25,3.5,14,2.62,18.9,0V57.58a35.51,35.51,0,0,1,22.4-8.23c25.9,0,38.15,19.43,38.15,39.9,0,22.4-14.7,45.85-39.55,45.85-14.17,0-19.07-6.82-29.4-6.82a45.79,45.79,0,0,0-6.83.35ZM18.9,107.63c0,17.15,7.88,23.45,20.48,23.45,18.55,0,25.37-17.5,25.37-38.33,0-21.7-7.35-39.55-25.9-39.55-6,0-12.43,1.23-20,8Z"/>
        <path class="cls-2" d="M125.83,161c-2.8,4-6.65,7.18-13.48,7.18-7.35,0-10.15-3.33-11.2-10-7.52,8.23-17.32,10-24,10-24.33,0-37.45-19.95-37.45-40.6,0-26.08,19.42-45.15,41.47-45.15a36.64,36.64,0,0,1,19.43,5.77V47.27c0-6.3-.53-8.22-7.7-9.45V37c5.25-.35,14-1.23,18.9-3.85V143c0,16.8.87,19.95,6,19.95a13.58,13.58,0,0,0,7.52-2.8ZM100.63,98.2C97,90.5,88.38,86,80,86c-13.13,0-25.2,11.2-25.2,39.9,0,20.82,10.32,36.4,28.87,36.4,5.78,0,17-2.8,17-14.18Z"/>
        <path class="cls-1" d="M64.52,86.25s.38,5.16.23,6.15S79.34,86,79.34,86s-.07-1.68-.34-3.44S65.63,84.93,64.52,86.25Z"/>
      </g>
    </g>
  </g>
</svg>
